<?xml version="1.0" encoding="UTF-8"?>
<svg xmlns="http://www.w3.org/2000/svg" xmlns:xlink="http://www.w3.org/1999/xlink" width="250px" height="116px" viewBox="0 0 251 116" version="1.1">
<g id="surface1">
<path style=" stroke:none;fill-rule:nonzero;fill:rgb(99.215686%,63.921571%,5.490196%);fill-opacity:1;" d="M 47.1875 23.097656 C 49.429688 25.078125 51.289062 26.71875 52.207031 29.628906 C 52.207031 32.402344 51.421875 33.746094 49.660156 35.726562 C 47.851562 37.472656 45.753906 38.769531 43.640625 40.117188 C 43.15625 40.429688 42.675781 40.742188 42.179688 41.066406 C 40.652344 42.058594 39.121094 43.046875 37.585938 44.035156 C 36.050781 45.027344 34.515625 46.019531 32.984375 47.015625 C 32.03125 47.636719 31.078125 48.25 30.125 48.863281 C 29.691406 49.144531 29.257812 49.421875 28.8125 49.710938 C 28.433594 49.957031 28.054688 50.199219 27.664062 50.449219 C 26.523438 51.28125 25.570312 52.207031 24.597656 53.230469 C 28.621094 53.855469 31.644531 53.996094 35.140625 51.722656 C 36.410156 50.632812 37.433594 49.46875 38.511719 48.195312 C 38.96875 47.65625 38.96875 47.65625 39.4375 47.109375 C 39.71875 46.769531 40 46.433594 40.289062 46.082031 C 41.605469 44.75 42.621094 44.253906 44.488281 44.039062 C 48 44.023438 49.714844 44.371094 52.363281 46.734375 C 53.628906 48.929688 53.675781 50.753906 53.210938 53.230469 C 50.570312 59.886719 43.980469 65.027344 37.675781 67.984375 C 31.652344 70.191406 23.890625 70.367188 17.90625 67.953125 C 10.738281 64.40625 6.46875 59.640625 3.515625 52.226562 C 1.164062 44.359375 1.964844 35.566406 5.585938 28.277344 C 9.042969 22.253906 13.941406 18.574219 20.578125 16.632812 C 29.957031 14.722656 39.796875 16.988281 47.1875 23.097656 Z M 19.074219 34.148438 C 17.382812 36.652344 16.816406 38.679688 17.066406 41.679688 C 19.664062 40.832031 21.769531 39.28125 24 37.757812 C 26.84375 35.828125 29.703125 33.9375 32.628906 32.136719 C 31.15625 30.726562 29.746094 30.28125 27.71875 30.097656 C 24.277344 30.195312 21.429688 31.683594 19.074219 34.148438 Z M 19.074219 34.148438 "/>
<path style=" stroke:none;fill-rule:nonzero;fill:rgb(0%,0%,0%);fill-opacity:1;" d="M 68.273438 16.570312 C 70.277344 18.332031 70.925781 19.519531 71.136719 22.183594 C 71.167969 23.136719 71.183594 24.09375 71.191406 25.046875 C 71.203125 25.535156 71.214844 26.023438 71.226562 26.527344 C 71.257812 27.730469 71.277344 28.929688 71.285156 30.128906 C 71.652344 30.015625 72.019531 29.898438 72.394531 29.777344 C 78.679688 27.839844 84.238281 28.265625 90.148438 31.296875 C 94.71875 34.140625 97.878906 38.109375 99.1875 43.363281 C 100.144531 49.476562 99.414062 55.121094 95.773438 60.175781 C 92.109375 64.628906 87.597656 67.449219 81.824219 68.261719 C 76.046875 68.558594 71.167969 66.96875 66.636719 63.378906 C 61.972656 59.070312 60.019531 53.898438 59.644531 47.648438 C 59.605469 45.96875 59.597656 44.289062 59.605469 42.609375 C 59.605469 42 59.601562 41.386719 59.601562 40.757812 C 59.601562 39.480469 59.601562 38.199219 59.605469 36.917969 C 59.613281 34.957031 59.605469 33 59.601562 31.039062 C 59.601562 29.789062 59.601562 28.542969 59.605469 27.292969 C 59.601562 26.707031 59.601562 26.125 59.597656 25.519531 C 59.601562 24.976562 59.605469 24.429688 59.609375 23.871094 C 59.609375 23.390625 59.609375 22.914062 59.609375 22.421875 C 59.855469 19.84375 60.789062 18.238281 62.75 16.570312 C 64.644531 15.941406 66.414062 15.839844 68.273438 16.570312 Z M 71.785156 44.191406 C 70.789062 47.1875 70.621094 49.152344 71.707031 52.132812 C 72.929688 54.441406 74.859375 55.929688 77.308594 56.746094 C 80.46875 57.136719 82.878906 56.902344 85.492188 55.007812 C 87.648438 53.046875 88.460938 51.144531 88.632812 48.238281 C 88.511719 45.539062 87.652344 43.671875 85.84375 41.679688 C 83.710938 39.765625 81.421875 39.292969 78.597656 39.410156 C 75.632812 40.007812 73.4375 41.710938 71.785156 44.191406 Z M 71.785156 44.191406 "/>
<path style=" stroke:none;fill-rule:nonzero;fill:rgb(0%,0%,0%);fill-opacity:1;" d="M 130.4375 29.898438 C 135.90625 33.585938 139.320312 37.738281 140.871094 44.160156 C 141.449219 47.292969 141.335938 50.527344 141.296875 53.703125 C 141.28125 55 141.285156 56.296875 141.292969 57.59375 C 141.289062 58.421875 141.285156 59.253906 141.28125 60.085938 C 141.28125 60.472656 141.28125 60.855469 141.285156 61.25 C 141.246094 63.511719 140.976562 65.003906 139.554688 66.789062 C 137.5625 68 136.195312 68.480469 133.941406 67.949219 C 132.808594 67.609375 132.015625 67.28125 131.023438 66.632812 C 129.523438 66.117188 128.535156 66.804688 127.136719 67.382812 C 122.316406 69.117188 116.839844 68.300781 112.292969 66.160156 C 107.519531 63.523438 104.214844 59.902344 102.355469 54.6875 C 100.847656 49.082031 101.019531 43.972656 103.652344 38.683594 C 106.375 34.152344 109.636719 30.980469 114.617188 29.066406 C 119.476562 27.902344 125.871094 27.617188 130.4375 29.898438 Z M 113.484375 43.875 C 112.417969 46.511719 112.183594 48.394531 113.042969 51.0625 C 114.582031 53.875 115.882812 55.65625 118.972656 56.746094 C 122.402344 57.210938 124.75 56.835938 127.507812 54.734375 C 129.574219 52.070312 130.292969 50.074219 130.019531 46.703125 C 129.035156 43.734375 127.507812 41.976562 124.996094 40.171875 C 120.445312 37.898438 116.355469 40.355469 113.484375 43.875 Z M 113.484375 43.875 "/>
<path style=" stroke:none;fill-rule:nonzero;fill:rgb(0%,0%,0%);fill-opacity:1;" d="M 239.371094 29.96875 C 244.753906 33.257812 248.074219 37.144531 249.996094 43.1875 C 251.382812 49.035156 250.3125 54.335938 247.328125 59.46875 C 244.445312 63.875 240.394531 66.335938 235.335938 67.734375 C 229.699219 68.804688 224.5625 68.136719 219.628906 65.160156 C 214.921875 61.855469 212.015625 57.515625 210.980469 51.824219 C 210.238281 46.019531 211.523438 40.726562 214.855469 35.890625 C 220.488281 28.9375 231.113281 25.914062 239.371094 29.96875 Z M 223.765625 42.902344 C 222.097656 45.347656 221.582031 47.238281 221.882812 50.214844 C 222.972656 53.464844 224.816406 55.699219 227.90625 57.246094 C 230.546875 57.511719 232.75 57.582031 235.15625 56.398438 C 237.71875 54.085938 239.25 52.027344 239.640625 48.554688 C 239.332031 45.515625 238.214844 43.199219 235.878906 41.207031 C 231.675781 38.195312 227.160156 39.226562 223.765625 42.902344 Z M 223.765625 42.902344 "/>
<path style=" stroke:none;fill-rule:nonzero;fill:rgb(0%,0%,0%);fill-opacity:1;" d="M 175.699219 31.132812 C 177.199219 32.183594 178.46875 33.3125 179.714844 34.648438 C 179.996094 34.941406 180.273438 35.234375 180.558594 35.539062 C 184.898438 40.664062 185.050781 47.085938 184.96875 53.460938 C 184.957031 54.714844 184.960938 55.96875 184.964844 57.222656 C 184.964844 58.03125 184.960938 58.839844 184.953125 59.644531 C 184.957031 60.015625 184.957031 60.386719 184.957031 60.769531 C 184.914062 63.136719 184.503906 64.785156 183.230469 66.789062 C 181.5625 67.902344 180.703125 68.179688 178.710938 68.292969 C 176.402344 67.550781 174.878906 66.925781 173.691406 64.777344 C 173.546875 63.398438 173.484375 62.128906 173.488281 60.753906 C 173.484375 60.363281 173.476562 59.972656 173.472656 59.570312 C 173.453125 58.324219 173.445312 57.078125 173.441406 55.835938 C 173.433594 54.199219 173.417969 52.5625 173.394531 50.929688 C 173.394531 50.558594 173.398438 50.1875 173.398438 49.804688 C 173.359375 46.976562 172.847656 44.503906 170.914062 42.3125 C 167.90625 40.078125 165.875 39.792969 162.144531 40.171875 C 159.820312 41.316406 157.734375 43.003906 156.828125 45.523438 C 156.527344 47.261719 156.546875 49 156.535156 50.765625 C 156.523438 51.570312 156.511719 52.375 156.5 53.179688 C 156.480469 54.445312 156.46875 55.710938 156.460938 56.976562 C 156.453125 58.203125 156.433594 59.425781 156.410156 60.648438 C 156.410156 61.027344 156.414062 61.402344 156.414062 61.789062 C 156.355469 64.261719 155.90625 65.574219 154.113281 67.289062 C 152.117188 68.15625 150.90625 68.335938 148.75 68.042969 C 146.660156 67.097656 146.152344 66.292969 145.078125 64.277344 C 144.890625 62.820312 144.808594 61.5625 144.828125 60.113281 C 144.828125 59.71875 144.828125 59.324219 144.828125 58.914062 C 144.828125 58.082031 144.832031 57.25 144.84375 56.414062 C 144.859375 55.15625 144.855469 53.898438 144.847656 52.640625 C 144.855469 45.628906 145.671875 39.359375 150.65625 34.015625 C 157.375 27.746094 167.652344 26.175781 175.699219 31.132812 Z M 175.699219 31.132812 "/>
<path style=" stroke:none;fill-rule:nonzero;fill:rgb(0%,0%,0%);fill-opacity:1;" d="M 203.8125 29.125 C 205.195312 30.222656 206.039062 31.070312 206.824219 32.640625 C 206.882812 33.757812 206.910156 34.875 206.921875 35.992188 C 206.925781 36.511719 206.925781 36.511719 206.933594 37.039062 C 206.945312 38.183594 206.953125 39.328125 206.960938 40.472656 C 206.964844 40.863281 206.964844 41.253906 206.96875 41.660156 C 206.984375 43.734375 206.992188 45.8125 207 47.886719 C 207.007812 49.601562 207.019531 51.3125 207.039062 53.027344 C 207.066406 55.097656 207.078125 57.167969 207.082031 59.242188 C 207.085938 60.027344 207.09375 60.8125 207.105469 61.601562 C 207.179688 66.871094 206.730469 70.953125 203.203125 75.132812 C 199.773438 78.015625 196.992188 79.640625 192.417969 79.488281 C 190.382812 79.230469 189.296875 78.34375 187.84375 76.988281 C 186.960938 75.273438 186.929688 73.671875 187.246094 71.808594 C 188.054688 70.152344 188.738281 69.492188 190.46875 68.847656 C 191.355469 68.589844 192.25 68.347656 193.148438 68.132812 C 194.363281 67.863281 194.363281 67.863281 195.277344 66.789062 C 195.886719 65.078125 195.84375 63.398438 195.851562 61.59375 C 195.855469 60.949219 195.859375 60.304688 195.863281 59.640625 C 195.863281 59.296875 195.863281 58.953125 195.863281 58.597656 C 195.867188 57.519531 195.875 56.441406 195.886719 55.363281 C 195.910156 52.296875 195.9375 49.230469 195.945312 46.164062 C 195.949219 44.285156 195.964844 42.40625 195.984375 40.53125 C 195.992188 39.816406 195.992188 39.101562 195.992188 38.386719 C 195.992188 37.386719 196.003906 36.386719 196.015625 35.386719 C 196.019531 34.820312 196.023438 34.25 196.023438 33.667969 C 196.335938 31.804688 196.992188 30.96875 198.289062 29.628906 C 200.035156 28.753906 201.910156 28.824219 203.8125 29.125 Z M 203.8125 29.125 "/>
<path style=" stroke:none;fill-rule:nonzero;fill:rgb(0%,0%,0%);fill-opacity:1;" d="M 152.199219 86.6875 C 152.675781 86.667969 153.152344 86.648438 153.640625 86.628906 C 155.902344 86.601562 157.609375 86.589844 159.445312 88.019531 C 160.949219 89.738281 161.207031 91.1875 161.140625 93.402344 C 160.976562 94.574219 160.808594 95.746094 160.640625 96.917969 C 160.726562 97.601562 160.832031 98.28125 160.953125 98.957031 C 161.167969 101.210938 160.886719 102.089844 159.636719 103.949219 C 158.128906 105.324219 157.167969 105.640625 155.144531 105.621094 C 154.441406 105.617188 154.441406 105.617188 153.730469 105.613281 C 153.003906 105.597656 153.003906 105.597656 152.261719 105.582031 C 151.773438 105.578125 151.285156 105.574219 150.78125 105.570312 C 147.164062 105.53125 147.164062 105.53125 146.585938 104.953125 C 146.535156 103.65625 146.515625 102.371094 146.515625 101.078125 C 146.515625 100.6875 146.515625 100.300781 146.515625 99.898438 C 146.515625 99.078125 146.515625 98.253906 146.519531 97.433594 C 146.519531 96.167969 146.519531 94.90625 146.515625 93.644531 C 146.515625 92.847656 146.515625 92.050781 146.515625 91.253906 C 146.515625 90.871094 146.515625 90.492188 146.515625 90.101562 C 146.535156 85.855469 148.480469 86.742188 152.199219 86.6875 Z M 150.601562 90.390625 C 150.601562 91.550781 150.601562 92.710938 150.601562 93.90625 C 151.414062 93.933594 152.230469 93.953125 153.046875 93.96875 C 153.5 93.980469 153.957031 93.992188 154.421875 94.003906 C 155.714844 94.027344 155.714844 94.027344 156.625 92.902344 C 156.421875 91.503906 156.421875 91.503906 155.621094 90.390625 C 154.773438 90.351562 153.925781 90.347656 153.078125 90.359375 C 152.617188 90.363281 152.15625 90.367188 151.679688 90.371094 C 151.324219 90.378906 150.96875 90.382812 150.601562 90.390625 Z M 150.601562 97.417969 C 150.601562 98.746094 150.601562 100.070312 150.601562 101.4375 C 151.414062 101.464844 152.230469 101.484375 153.046875 101.5 C 153.5 101.511719 153.957031 101.523438 154.421875 101.535156 C 155.714844 101.558594 155.714844 101.558594 156.625 100.433594 C 156.476562 98.773438 156.476562 98.773438 155.621094 97.417969 C 154.773438 97.382812 153.925781 97.378906 153.078125 97.386719 C 152.617188 97.394531 152.15625 97.398438 151.679688 97.402344 C 151.324219 97.40625 150.96875 97.414062 150.601562 97.417969 Z M 150.601562 97.417969 "/>
<path style=" stroke:none;fill-rule:nonzero;fill:rgb(99.215686%,63.921571%,5.490196%);fill-opacity:1;" d="M 112.792969 86.71875 C 113.195312 86.703125 113.601562 86.6875 114.015625 86.671875 C 116.765625 86.644531 118.289062 87.070312 120.480469 88.882812 C 122.136719 90.539062 122.371094 92.09375 122.488281 94.40625 C 122.066406 96.515625 121.722656 98.082031 119.976562 99.429688 C 120.589844 100.78125 120.589844 100.78125 121.484375 101.9375 C 121.546875 103.445312 121.546875 103.445312 121.484375 104.953125 C 120.980469 105.453125 120.980469 105.453125 119.695312 105.738281 C 117.328125 105.351562 116.46875 104.125 114.921875 102.363281 C 113.902344 101.386719 113.324219 101.128906 111.945312 100.933594 C 111.957031 101.585938 111.964844 102.238281 111.976562 102.914062 C 111.988281 103.59375 111.980469 104.273438 111.945312 104.953125 C 111.445312 105.453125 111.445312 105.453125 109.9375 105.515625 C 108.433594 105.453125 108.433594 105.453125 107.929688 104.953125 C 107.878906 103.65625 107.859375 102.371094 107.863281 101.078125 C 107.863281 100.6875 107.863281 100.300781 107.863281 99.898438 C 107.863281 99.078125 107.863281 98.253906 107.863281 97.433594 C 107.867188 96.167969 107.863281 94.90625 107.863281 93.644531 C 107.863281 92.847656 107.863281 92.050781 107.863281 91.253906 C 107.863281 90.871094 107.859375 90.492188 107.859375 90.101562 C 107.878906 86.152344 109.253906 86.757812 112.792969 86.71875 Z M 111.945312 90.890625 C 111.945312 92.878906 111.945312 94.867188 111.945312 96.917969 C 114.078125 97.085938 115.136719 97.136719 116.933594 95.914062 C 117.277344 95.582031 117.617188 95.25 117.96875 94.910156 C 117.8125 93.4375 117.652344 92.605469 116.652344 91.488281 C 115.042969 90.683594 113.71875 90.789062 111.945312 90.890625 Z M 111.945312 90.890625 "/>
<path style=" stroke:none;fill-rule:nonzero;fill:rgb(0%,0%,0%);fill-opacity:1;" d="M 172.1875 86.875 C 174.464844 87.996094 175.589844 89.136719 176.703125 91.394531 C 176.882812 92.914062 176.882812 92.914062 176.867188 94.585938 C 176.867188 95.1875 176.863281 95.789062 176.859375 96.410156 C 176.851562 97.03125 176.839844 97.65625 176.828125 98.296875 C 176.828125 98.929688 176.824219 99.5625 176.820312 100.210938 C 176.78125 104.875 176.78125 104.875 176.203125 105.453125 C 174.695312 105.515625 174.695312 105.515625 173.191406 105.453125 C 172.6875 104.953125 172.6875 104.953125 172.640625 103.914062 C 172.65625 102.753906 172.671875 101.59375 172.6875 100.433594 C 170.699219 100.433594 168.710938 100.433594 166.664062 100.433594 C 166.683594 101.074219 166.707031 101.71875 166.726562 102.378906 C 166.761719 103.472656 166.761719 103.472656 166.664062 104.449219 C 165.660156 105.453125 165.660156 105.453125 164.40625 105.582031 C 163.148438 105.453125 163.148438 105.453125 162.144531 104.449219 C 161.917969 102.585938 161.984375 100.707031 161.988281 98.832031 C 161.980469 98.316406 161.972656 97.796875 161.964844 97.265625 C 161.960938 94.246094 162.160156 92.03125 163.652344 89.386719 C 166.394531 86.84375 168.523438 86.46875 172.1875 86.875 Z M 167.574219 91.675781 C 166.363281 93.308594 166.511719 94.433594 166.664062 96.414062 C 168.652344 96.414062 170.640625 96.414062 172.6875 96.414062 C 172.898438 94.742188 172.898438 94.742188 172.6875 92.902344 C 171.589844 91.628906 171.589844 91.628906 170.179688 90.890625 C 168.652344 90.746094 168.652344 90.746094 167.574219 91.675781 Z M 167.574219 91.675781 "/>
<path style=" stroke:none;fill-rule:nonzero;fill:rgb(99.215686%,63.921571%,5.490196%);fill-opacity:1;" d="M 57.730469 86.875 C 60.011719 87.996094 61.132812 89.136719 62.246094 91.394531 C 62.425781 92.914062 62.425781 92.914062 62.414062 94.585938 C 62.410156 95.1875 62.40625 95.789062 62.40625 96.410156 C 62.394531 97.03125 62.382812 97.65625 62.375 98.296875 C 62.371094 98.929688 62.367188 99.5625 62.367188 100.210938 C 62.324219 104.875 62.324219 104.875 61.746094 105.453125 C 60.238281 105.515625 60.238281 105.515625 58.734375 105.453125 C 58.230469 104.953125 58.230469 104.953125 58.183594 103.914062 C 58.199219 102.753906 58.214844 101.59375 58.230469 100.433594 C 56.242188 100.433594 54.257812 100.433594 52.207031 100.433594 C 52.230469 101.074219 52.25 101.71875 52.269531 102.378906 C 52.304688 103.472656 52.304688 103.472656 52.207031 104.449219 C 51.203125 105.453125 51.203125 105.453125 49.949219 105.582031 C 48.695312 105.453125 48.695312 105.453125 47.691406 104.449219 C 47.460938 102.585938 47.527344 100.707031 47.53125 98.832031 C 47.523438 98.316406 47.515625 97.796875 47.507812 97.265625 C 47.507812 94.246094 47.703125 92.03125 49.195312 89.386719 C 51.9375 86.84375 54.066406 86.46875 57.730469 86.875 Z M 53.117188 91.675781 C 51.90625 93.308594 52.054688 94.433594 52.207031 96.414062 C 54.195312 96.414062 56.183594 96.414062 58.230469 96.414062 C 58.441406 94.742188 58.441406 94.742188 58.230469 92.902344 C 57.136719 91.628906 57.136719 91.628906 55.722656 90.890625 C 54.195312 90.746094 54.195312 90.746094 53.117188 91.675781 Z M 53.117188 91.675781 "/>
<path style=" stroke:none;fill-rule:nonzero;fill:rgb(0%,0%,0%);fill-opacity:1;" d="M 215.074219 87.722656 C 217.058594 89.511719 217.9375 90.945312 218.085938 93.621094 C 218.09375 94.457031 218.09375 95.296875 218.085938 96.132812 C 218.101562 96.761719 218.101562 96.761719 218.117188 97.402344 C 218.117188 100.167969 217.691406 101.753906 215.859375 103.949219 C 213.941406 105.640625 212.050781 105.714844 209.585938 105.628906 C 207.535156 105.34375 206.464844 104.722656 204.816406 103.445312 C 203.257812 100.996094 203.0625 98.980469 203.089844 96.164062 C 203.082031 95.796875 203.070312 95.429688 203.058594 95.046875 C 203.0625 91.988281 204.101562 90.292969 206.101562 87.972656 C 208.515625 85.976562 212.476562 86.445312 215.074219 87.722656 Z M 208.753906 91.410156 C 207.398438 92.855469 207.535156 94.285156 207.578125 96.164062 C 207.570312 96.503906 207.5625 96.84375 207.554688 97.195312 C 207.566406 98.835938 207.617188 99.710938 208.765625 100.921875 C 209.832031 101.535156 209.832031 101.535156 211.121094 101.40625 C 212.632812 100.824219 213.019531 100.300781 213.851562 98.925781 C 214.1875 97.054688 214.15625 95.277344 213.851562 93.402344 C 212.804688 91.765625 212.804688 91.765625 211.34375 90.890625 C 209.863281 90.785156 209.863281 90.785156 208.753906 91.410156 Z M 208.753906 91.410156 "/>
<path style=" stroke:none;fill-rule:nonzero;fill:rgb(0%,0%,0%);fill-opacity:1;" d="M 187.746094 86.875 C 190.027344 87.996094 191.152344 89.136719 192.265625 91.394531 C 192.445312 92.914062 192.445312 92.914062 192.429688 94.585938 C 192.429688 95.1875 192.425781 95.789062 192.421875 96.410156 C 192.414062 97.03125 192.402344 97.65625 192.390625 98.296875 C 192.390625 98.929688 192.386719 99.5625 192.382812 100.210938 C 192.34375 104.875 192.34375 104.875 191.765625 105.453125 C 190.257812 105.515625 190.257812 105.515625 188.753906 105.453125 C 187.898438 104.601562 188.175781 103.488281 188.160156 102.320312 C 188.148438 101.785156 188.136719 101.25 188.125 100.699219 C 188.105469 99.5625 188.089844 98.425781 188.078125 97.292969 C 188.066406 96.753906 188.050781 96.21875 188.035156 95.667969 C 188.027344 95.171875 188.023438 94.679688 188.015625 94.167969 C 187.855469 92.835938 187.855469 92.835938 186.808594 91.96875 C 185.742188 91.273438 185.742188 91.273438 184.390625 91.488281 C 183.144531 91.773438 183.144531 91.773438 182.726562 92.902344 C 182.664062 93.761719 182.625 94.625 182.605469 95.488281 C 182.589844 96.003906 182.570312 96.515625 182.554688 97.046875 C 182.523438 98.132812 182.496094 99.21875 182.46875 100.304688 C 182.449219 100.820312 182.433594 101.332031 182.417969 101.859375 C 182.402344 102.332031 182.390625 102.804688 182.378906 103.292969 C 182.226562 104.449219 182.226562 104.449219 181.222656 105.453125 C 179.96875 105.582031 179.96875 105.582031 178.710938 105.453125 C 177.199219 103.941406 177.5625 102.496094 177.546875 100.429688 C 177.546875 99.902344 177.550781 99.375 177.550781 98.832031 C 177.542969 98.316406 177.535156 97.796875 177.527344 97.265625 C 177.523438 94.246094 177.722656 92.03125 179.214844 89.386719 C 181.957031 86.84375 184.085938 86.46875 187.746094 86.875 Z M 187.746094 86.875 "/>
<path style=" stroke:none;fill-rule:nonzero;fill:rgb(99.215686%,63.921571%,5.490196%);fill-opacity:1;" d="M 133.53125 86.875 C 135.8125 87.996094 136.933594 89.136719 138.050781 91.394531 C 138.230469 92.914062 138.230469 92.914062 138.214844 94.585938 C 138.210938 95.1875 138.210938 95.789062 138.207031 96.410156 C 138.195312 97.03125 138.1875 97.65625 138.175781 98.296875 C 138.171875 98.929688 138.171875 99.5625 138.167969 100.210938 C 138.128906 104.875 138.128906 104.875 137.546875 105.453125 C 136.042969 105.515625 136.042969 105.515625 134.535156 105.453125 C 133.683594 104.601562 133.960938 103.488281 133.945312 102.320312 C 133.933594 101.785156 133.921875 101.25 133.910156 100.699219 C 133.886719 99.5625 133.871094 98.425781 133.863281 97.292969 C 133.847656 96.753906 133.835938 96.21875 133.820312 95.667969 C 133.8125 95.171875 133.804688 94.679688 133.796875 94.167969 C 133.640625 92.835938 133.640625 92.835938 132.59375 91.96875 C 131.527344 91.273438 131.527344 91.273438 130.175781 91.488281 C 128.929688 91.773438 128.929688 91.773438 128.511719 92.902344 C 128.445312 93.761719 128.410156 94.625 128.386719 95.488281 C 128.371094 96.003906 128.355469 96.515625 128.339844 97.046875 C 128.308594 98.132812 128.277344 99.21875 128.253906 100.304688 C 128.234375 100.820312 128.21875 101.332031 128.199219 101.859375 C 128.1875 102.332031 128.175781 102.804688 128.160156 103.292969 C 128.011719 104.449219 128.011719 104.449219 127.007812 105.453125 C 125.75 105.582031 125.75 105.582031 124.496094 105.453125 C 122.984375 103.941406 123.34375 102.496094 123.332031 100.429688 C 123.332031 99.902344 123.332031 99.375 123.335938 98.832031 C 123.328125 98.316406 123.320312 97.796875 123.3125 97.265625 C 123.308594 94.246094 123.507812 92.03125 124.996094 89.386719 C 127.742188 86.84375 129.867188 86.46875 133.53125 86.875 Z M 133.53125 86.875 "/>
<path style=" stroke:none;fill-rule:nonzero;fill:rgb(99.215686%,63.921571%,5.490196%);fill-opacity:1;" d="M 99.867188 86.78125 C 100.382812 86.773438 100.898438 86.769531 101.429688 86.761719 C 102.167969 86.761719 102.167969 86.761719 102.921875 86.757812 C 103.378906 86.757812 103.832031 86.753906 104.300781 86.753906 C 105.421875 86.875 105.421875 86.875 106.425781 87.878906 C 106.144531 90.167969 106.144531 90.167969 105.421875 90.890625 C 104.148438 90.929688 102.894531 90.9375 101.625 90.921875 C 101.265625 90.921875 100.910156 90.917969 100.542969 90.917969 C 99.65625 90.910156 98.773438 90.902344 97.890625 90.890625 C 97.890625 91.886719 97.890625 92.878906 97.890625 93.90625 C 98.46875 93.886719 98.46875 93.886719 99.0625 93.871094 C 99.566406 93.859375 100.070312 93.851562 100.589844 93.84375 C 101.089844 93.832031 101.589844 93.820312 102.105469 93.808594 C 103.410156 93.90625 103.410156 93.90625 104.414062 94.910156 C 104.136719 97.195312 104.136719 97.195312 103.410156 97.921875 C 102.480469 97.957031 101.550781 97.964844 100.621094 97.953125 C 100.113281 97.949219 99.605469 97.945312 99.082031 97.941406 C 98.492188 97.929688 98.492188 97.929688 97.890625 97.921875 C 97.890625 99.082031 97.890625 100.242188 97.890625 101.4375 C 98.421875 101.425781 98.953125 101.414062 99.5 101.402344 C 100.199219 101.390625 100.894531 101.382812 101.59375 101.375 C 102.117188 101.363281 102.117188 101.363281 102.65625 101.347656 C 103.578125 101.339844 104.5 101.386719 105.421875 101.4375 C 105.75 101.769531 106.082031 102.101562 106.425781 102.441406 C 106.144531 104.730469 106.144531 104.730469 105.421875 105.453125 C 104.605469 105.503906 103.789062 105.519531 102.972656 105.519531 C 102.476562 105.523438 101.984375 105.523438 101.472656 105.523438 C 100.953125 105.519531 100.433594 105.519531 99.898438 105.515625 C 99.117188 105.519531 99.117188 105.519531 98.320312 105.523438 C 97.828125 105.523438 97.332031 105.523438 96.824219 105.519531 C 96.367188 105.519531 95.910156 105.519531 95.4375 105.519531 C 94.375 105.453125 94.375 105.453125 93.875 104.953125 C 93.824219 103.65625 93.804688 102.371094 93.808594 101.078125 C 93.808594 100.6875 93.804688 100.300781 93.804688 99.898438 C 93.804688 99.078125 93.804688 98.253906 93.808594 97.433594 C 93.8125 96.167969 93.808594 94.90625 93.804688 93.644531 C 93.804688 92.847656 93.804688 92.050781 93.808594 91.253906 C 93.804688 90.871094 93.804688 90.492188 93.804688 90.101562 C 93.824219 85.71875 96.070312 86.78125 99.867188 86.78125 Z M 99.867188 86.78125 "/>
<path style=" stroke:none;fill-rule:nonzero;fill:rgb(99.215686%,63.921571%,5.490196%);fill-opacity:1;" d="M 39.625 86.78125 C 40.144531 86.773438 40.660156 86.769531 41.191406 86.761719 C 41.929688 86.761719 41.929688 86.761719 42.683594 86.757812 C 43.136719 86.757812 43.59375 86.753906 44.058594 86.753906 C 45.179688 86.875 45.179688 86.875 46.183594 87.878906 C 45.90625 90.167969 45.90625 90.167969 45.179688 90.890625 C 43.910156 90.929688 42.652344 90.9375 41.382812 90.921875 C 41.027344 90.921875 40.667969 90.917969 40.300781 90.917969 C 39.417969 90.910156 38.535156 90.902344 37.648438 90.890625 C 37.648438 91.886719 37.648438 92.878906 37.648438 93.90625 C 38.230469 93.886719 38.230469 93.886719 38.824219 93.871094 C 39.324219 93.859375 39.828125 93.851562 40.347656 93.84375 C 40.847656 93.832031 41.351562 93.820312 41.867188 93.808594 C 43.171875 93.90625 43.171875 93.90625 44.175781 94.910156 C 43.898438 97.195312 43.898438 97.195312 43.171875 97.921875 C 42.242188 97.957031 41.308594 97.964844 40.378906 97.953125 C 39.871094 97.949219 39.363281 97.945312 38.839844 97.941406 C 38.25 97.929688 38.25 97.929688 37.648438 97.921875 C 37.648438 99.082031 37.648438 100.242188 37.648438 101.4375 C 38.183594 101.425781 38.714844 101.414062 39.261719 101.402344 C 39.957031 101.390625 40.65625 101.382812 41.351562 101.375 C 41.878906 101.363281 41.878906 101.363281 42.414062 101.347656 C 43.335938 101.339844 44.257812 101.386719 45.179688 101.4375 C 45.511719 101.769531 45.84375 102.101562 46.183594 102.441406 C 45.90625 104.730469 45.90625 104.730469 45.179688 105.453125 C 44.367188 105.503906 43.546875 105.519531 42.734375 105.519531 C 42.238281 105.523438 41.742188 105.523438 41.234375 105.523438 C 40.714844 105.519531 40.195312 105.519531 39.65625 105.515625 C 38.878906 105.519531 38.878906 105.519531 38.082031 105.523438 C 37.585938 105.523438 37.09375 105.523438 36.582031 105.519531 C 36.125 105.519531 35.667969 105.519531 35.199219 105.519531 C 34.136719 105.453125 34.136719 105.453125 33.632812 104.953125 C 33.582031 103.65625 33.5625 102.371094 33.566406 101.078125 C 33.566406 100.6875 33.566406 100.300781 33.566406 99.898438 C 33.566406 99.078125 33.566406 98.253906 33.570312 97.433594 C 33.570312 96.167969 33.570312 94.90625 33.566406 93.644531 C 33.566406 92.847656 33.566406 92.050781 33.566406 91.253906 C 33.566406 90.871094 33.566406 90.492188 33.5625 90.101562 C 33.585938 85.71875 35.828125 86.78125 39.625 86.78125 Z M 39.625 86.78125 "/>
<path style=" stroke:none;fill-rule:nonzero;fill:rgb(99.215686%,63.921571%,5.490196%);fill-opacity:1;" d="M 68.871094 86.757812 C 69.273438 86.757812 69.671875 86.761719 70.085938 86.761719 C 70.503906 86.769531 70.917969 86.773438 71.347656 86.78125 C 71.765625 86.78125 72.1875 86.78125 72.621094 86.78125 C 75.730469 86.804688 75.730469 86.804688 76.304688 87.375 C 76.367188 88.882812 76.367188 88.882812 76.304688 90.390625 C 75.113281 91.582031 72.003906 91.058594 70.390625 91.105469 C 68.726562 91.207031 68.726562 91.207031 68.050781 92.417969 C 67.910156 92.90625 67.910156 92.90625 67.769531 93.402344 C 68.132812 93.410156 68.496094 93.417969 68.871094 93.425781 C 72.230469 93.589844 73.996094 93.921875 76.304688 96.414062 C 77.179688 98.164062 77.101562 100.03125 76.804688 101.9375 C 75.953125 103.484375 74.890625 104.652344 73.292969 105.453125 C 71.863281 105.515625 70.453125 105.546875 69.023438 105.546875 C 68.632812 105.554688 68.238281 105.5625 67.832031 105.566406 C 66.804688 105.570312 65.78125 105.515625 64.757812 105.453125 C 64.425781 105.125 64.09375 104.792969 63.753906 104.449219 C 64.03125 102.164062 64.03125 102.164062 64.757812 101.4375 C 65.9375 101.320312 67.121094 101.230469 68.304688 101.15625 C 68.949219 101.113281 69.597656 101.070312 70.265625 101.027344 C 70.769531 100.996094 71.269531 100.964844 71.785156 100.933594 C 71.953125 100.105469 72.117188 99.277344 72.289062 98.425781 C 71.839844 98.382812 71.390625 98.335938 70.929688 98.292969 C 70.34375 98.222656 69.757812 98.152344 69.152344 98.078125 C 68.277344 97.984375 68.277344 97.984375 67.386719 97.886719 C 65.410156 97.320312 64.851562 96.609375 63.753906 94.910156 C 63.035156 93.46875 63.097656 92.492188 63.253906 90.890625 C 64.667969 88.351562 65.847656 86.742188 68.871094 86.757812 Z M 68.871094 86.757812 "/>
<path style=" stroke:none;fill-rule:nonzero;fill:rgb(99.215686%,63.921571%,5.490196%);fill-opacity:1;" d="M 78.8125 86.875 C 80.109375 86.6875 80.109375 86.6875 81.730469 86.691406 C 82.605469 86.691406 82.605469 86.691406 83.492188 86.691406 C 84.101562 86.699219 84.710938 86.710938 85.339844 86.71875 C 85.949219 86.714844 86.558594 86.714844 87.1875 86.710938 C 91.730469 86.742188 91.730469 86.742188 92.871094 87.878906 C 92.589844 90.167969 92.589844 90.167969 91.867188 90.890625 C 90.523438 90.960938 89.191406 90.914062 87.851562 90.890625 C 87.855469 91.261719 87.859375 91.632812 87.867188 92.011719 C 87.886719 93.6875 87.898438 95.367188 87.914062 97.042969 C 87.921875 97.625 87.929688 98.207031 87.9375 98.808594 C 87.941406 99.367188 87.945312 99.925781 87.949219 100.503906 C 87.953125 101.019531 87.957031 101.535156 87.964844 102.066406 C 87.847656 103.457031 87.5625 104.273438 86.847656 105.453125 C 85.84375 105.476562 84.835938 105.476562 83.835938 105.453125 C 83.332031 104.953125 83.332031 104.953125 83.273438 103.605469 C 83.277344 103.019531 83.28125 102.433594 83.28125 101.828125 C 83.285156 101.195312 83.285156 100.5625 83.289062 99.910156 C 83.292969 99.238281 83.296875 98.5625 83.300781 97.890625 C 83.304688 97.214844 83.304688 96.539062 83.308594 95.867188 C 83.3125 94.207031 83.320312 92.550781 83.332031 90.890625 C 81.839844 90.890625 80.351562 90.890625 78.8125 90.890625 C 78.25 89.730469 78.25 89.730469 77.808594 88.382812 C 78.140625 87.882812 78.472656 87.386719 78.8125 86.875 Z M 78.8125 86.875 "/>
<path style=" stroke:none;fill-rule:nonzero;fill:rgb(0%,0%,0%);fill-opacity:1;" d="M 203.8125 16.570312 C 205.253906 17.472656 206.066406 18.070312 206.824219 19.585938 C 207.089844 21.816406 207.105469 23.574219 206.039062 25.578125 C 204.476562 26.902344 203.324219 27.304688 201.300781 27.617188 C 199.625 27.289062 198.53125 26.769531 197.097656 25.863281 C 195.804688 23.871094 195.902344 21.886719 196.28125 19.585938 C 198.207031 16.441406 200.320312 16.117188 203.8125 16.570312 Z M 203.8125 16.570312 "/>
<path style=" stroke:none;fill-rule:nonzero;fill:rgb(0%,0%,0%);fill-opacity:1;" d="M 200.046875 86.75 C 201.300781 86.875 201.300781 86.875 202.304688 87.878906 C 202.535156 89.917969 202.46875 91.976562 202.460938 94.03125 C 202.472656 94.597656 202.480469 95.167969 202.488281 95.753906 C 202.492188 101.039062 202.492188 101.039062 200.800781 103.445312 C 199.105469 104.910156 198.144531 105.417969 195.90625 105.644531 C 194.273438 105.453125 194.273438 105.453125 193.269531 104.449219 C 193.269531 103.226562 193.269531 103.226562 193.773438 101.9375 C 195.277344 101.0625 195.277344 101.0625 196.785156 100.433594 C 197.640625 99.578125 197.382812 98.453125 197.410156 97.28125 C 197.433594 96.472656 197.433594 96.472656 197.460938 95.652344 C 197.488281 94.511719 197.519531 93.367188 197.546875 92.226562 C 197.5625 91.6875 197.582031 91.148438 197.597656 90.59375 C 197.609375 90.097656 197.621094 89.601562 197.636719 89.089844 C 197.851562 87.367188 198.324219 86.921875 200.046875 86.75 Z M 200.046875 86.75 "/>
</g>
</svg>
